Land_normalized_Motion_pl10
version=1
nRows=16
nColumns=43
inDegrees=yes
endheader
time		pelvis_tilt		pelvis_list		pelvis_rotation		pelvis_tx		pelvis_ty		pelvis_tz		hip_flexion_r		hip_adduction_r		hip_rotation_r		knee_angle_r		ankle_angle_r		subtalar_angle_r		mtp_angle_r		hip_flexion_l		hip_adduction_l		hip_rotation_l		knee_angle_l		ankle_angle_l		subtalar_angle_l		mtp_angle_l		lumbar_extension		lumbar_bending		lumbar_rotation		neck_flexion		neck_lateral_bending		neck_rotation		arm_flex_r		arm_add_r		arm_rot_r		elbow_flex_r		pro_sup_r		wrist_flex_r		wrist_dev_r		hand_finger_flex_r		arm_flex_l		arm_add_l		arm_rot_l		elbow_flex_l		pro_sup_l		wrist_flex_l		wrist_dev_l		hand_finger_flex_l		
0.901364		0.067308		3.241490		97.622200		0.004705		0.522193		0.520729		79.201245		-6.460805		0.905237		-118.213923		15.131121		-2.619711		15.730715		76.682863		-1.980835		2.333120		-122.206305		18.126649		-0.744336		23.647103		-54.944754		-1.164058		-1.738035		14.884889		5.317267		-4.494202		9.024838		-32.061128		-6.872337		56.760329		123.702054		-29.557955		-18.935376		-24.732591		9.662492		-31.605982		-11.408585		74.886742		144.804376		-50.710979		-8.507821		-9.851555		
0.904091		0.034078		3.351568		97.653603		0.005098		0.517408		0.519882		79.829128		-6.430482		1.087313		-119.187490		15.039623		-2.368476		16.194605		77.247637		-1.992566		2.526504		-123.104223		17.968770		-0.437955		24.607881		-55.448582		-1.135207		-1.772900		15.368068		5.233475		-4.553500		11.235922		-32.378507		-5.986567		57.430299		124.151725		-29.612548		-18.723202		-24.467131		12.403201		-32.007639		-9.956439		75.200249		145.129889		-50.828131		-8.257895		-8.923329		
0.906818		-0.003035		3.503812		97.661607		0.005421		0.512767		0.519080		80.383239		-6.430874		1.250805		-120.112858		14.980638		-1.975598		16.306027		77.738478		-2.068205		2.721337		-123.982922		17.980631		0.255000		24.832605		-55.938772		-1.126117		-1.794164		15.538179		5.314418		-4.578726		13.532316		-32.764524		-4.975522		57.946480		124.454079		-29.398466		-18.692165		-24.331653		15.135514		-32.353506		-8.518838		75.565152		145.039335		-50.242787		-8.195917		-8.611883		
0.909545		0.011613		3.669546		97.610691		0.005905		0.508242		0.518301		80.880080		-6.353268		1.340743		-120.971621		14.999233		-1.652304		16.478275		78.202952		-2.276323		2.932153		-124.839100		18.107062		0.963004		25.208929		-56.446237		-1.135926		-1.665488		15.814068		5.340381		-4.685800		15.724488		-33.205596		-3.967337		58.586960		124.774136		-29.375575		-18.463312		-24.207382		18.034471		-32.731173		-6.755778		75.822303		144.811946		-49.905854		-8.031260		-8.348713		
0.912273		0.083837		3.827423		97.536686		0.006581		0.503724		0.517517		81.367189		-6.261611		1.277252		-121.806578		15.066447		-1.493657		16.717041		78.665001		-2.538069		3.223289		-125.664351		18.302252		1.570332		25.755046		-56.934657		-1.146033		-1.422757		16.149219		5.262841		-4.835446		17.826259		-33.589922		-3.141199		59.299948		125.090509		-29.395619		-18.101056		-23.991716		21.054196		-33.143904		-4.753527		75.976951		144.532578		-49.762157		-7.948081		-8.110143		
0.915000		0.114523		3.823569		97.510416		0.006969		0.499078		0.516821		82.023594		-6.244262		1.300126		-122.609499		15.141920		-1.441354		16.782435		79.282383		-2.696071		3.386785		-126.435163		18.399074		1.738339		25.882017		-57.299505		-1.096287		-1.473459		16.732709		5.165769		-4.750777		20.160968		-33.889844		-2.208847		59.947476		125.424664		-28.985018		-18.280983		-23.778587		23.687119		-33.398695		-3.575107		76.291356		144.699673		-49.195686		-8.207356		-7.911317		
0.917727		0.256748		4.059868		97.406072		0.007624		0.494751		0.516040		82.373065		-6.133197		1.165932		-123.380908		15.232526		-1.209662		17.047843		79.669280		-3.067670		3.766592		-127.267493		18.690565		2.687097		26.433925		-57.773634		-1.110875		-1.082046		16.730994		5.292799		-4.944221		22.278907		-34.379999		-1.237190		60.536413		125.711646		-28.893322		-17.802153		-23.553794		26.939178		-33.746336		-1.143905		76.269293		144.112024		-49.079738		-7.907156		-7.799863		
0.920455		0.301724		4.051087		97.367532		0.007883		0.490161		0.515360		83.006700		-6.161265		1.170428		-124.133986		15.327128		-1.110519		17.149387		80.275474		-3.263610		3.927204		-128.029458		18.829470		2.971775		26.609895		-58.086923		-1.068666		-1.056897		17.204227		5.288392		-4.918748		24.590062		-34.750246		-0.228027		61.129059		126.039924		-28.478053		-17.918022		-23.344690		29.710210		-33.940840		0.294356		76.454131		144.146991		-48.602102		-8.085147		-7.636843		
0.923182		0.389127		4.221976		97.284046		0.008406		0.485759		0.514585		83.422136		-6.122722		1.116389		-124.893246		15.475907		-0.796574		17.478000		80.692288		-3.596056		4.229840		-128.831038		19.136833		3.874423		27.190801		-58.450440		-1.123940		-0.695371		17.108852		5.492615		-5.130495		26.687731		-35.249146		0.775284		61.620655		126.238363		-28.380390		-17.475823		-23.186390		33.098336		-34.196257		2.970309		76.232893		143.436409		-48.733869		-7.755223		-7.559390		
0.925909		0.410560		4.250789		97.234590		0.008659		0.481174		0.513843		84.007757		-6.162164		1.167871		-125.647387		15.597952		-0.543777		17.736829		81.234666		-3.827813		4.365087		-129.595589		19.325978		4.352886		27.613540		-58.701538		-1.158334		-0.532653		17.229727		5.677372		-5.269531		28.858886		-35.708720		1.811468		62.113090		126.480278		-28.088556		-17.415397		-22.999296		36.195134		-34.312910		5.027248		76.123625		143.144717		-48.605979		-7.775258		-7.333689		
0.928636		0.409585		4.255213		97.187542		0.008850		0.476520		0.513076		84.624029		-6.219604		1.262275		-126.407427		15.771812		-0.212331		17.915723		81.784993		-4.036781		4.464948		-130.360882		19.543902		4.812302		27.866380		-58.897146		-1.199964		-0.446072		17.254070		5.898808		-5.336236		31.099063		-36.139266		2.952416		62.518248		126.699479		-27.761877		-17.443837		-22.876012		39.179261		-34.418779		6.949506		76.051069		143.013733		-48.331424		-7.776497		-7.129949		
0.931364		0.371828		4.248401		97.151504		0.009177		0.471997		0.512339		85.225039		-6.276277		1.405611		-127.136717		16.038270		0.283332		18.161543		82.306730		-4.223829		4.546148		-131.081874		19.825269		5.362439		28.193772		-59.062782		-1.298576		-0.297402		17.228349		6.083704		-5.453324		33.260109		-36.465307		3.952688		62.807942		126.665669		-27.717302		-17.294360		-22.923332		42.454273		-34.466322		9.368576		75.712220		142.656786		-48.460950		-7.550072		-6.979373		
0.934091		0.366664		4.157159		97.125856		0.009440		0.467482		0.511643		85.903845		-6.350215		1.498816		-127.835150		16.259853		0.598819		18.317519		82.920976		-4.328401		4.633583		-131.758496		20.031997		5.618892		28.391129		-59.189766		-1.327631		-0.232159		17.528199		6.093177		-5.485585		35.468697		-36.646190		4.802473		63.148014		126.708327		-27.527444		-17.312106		-22.896628		45.431655		-34.442526		11.200710		75.534934		142.629584		-48.261300		-7.620585		-6.785510		
0.936818		0.254033		4.154272		97.151914		0.009775		0.462978		0.510886		86.510932		-6.479505		1.727992		-128.597930		16.586036		1.255237		18.558986		83.442066		-4.320069		4.657551		-132.463156		20.186623		5.912104		28.681750		-59.333930		-1.472739		-0.082222		17.455494		6.377873		-5.707424		37.443977		-37.048889		5.771145		63.443747		126.338591		-27.677435		-17.232014		-23.106807		48.892064		-34.314782		13.915401		74.942869		142.313852		-48.682344		-7.405186		-6.668660		
0.939545		0.203500		4.127186		97.198808		0.010083		0.458570		0.510203		87.134343		-6.631790		1.848464		-129.319542		16.779058		1.691600		18.708688		84.028638		-4.194278		4.766025		-133.139853		20.152128		6.005916		28.848711		-59.454893		-1.554740		-0.018062		17.355654		6.747585		-5.905268		39.568028		-37.323075		6.737271		63.652064		126.204341		-27.445756		-17.236220		-23.100528		52.019670		-34.099014		15.936468		74.553913		142.339669		-48.490402		-7.525610		-6.420196		
0.942273		0.007924		4.149731		97.297910		0.010326		0.454548		0.509616		87.678850		-6.866485		2.146569		-130.027947		17.088845		2.349998		18.912568		84.494645		-3.920927		4.691053		-133.744457		20.066562		5.855885		29.068365		-59.678129		-1.711268		0.045043		17.414072		7.056865		-6.124611		41.570916		-37.619428		7.590387		63.841205		125.513779		-27.618405		-17.103996		-23.341859		55.493652		-33.653539		18.446127		73.767444		142.130334		-48.851433		-7.464671		-6.289829		
